<svg id="Capa_1" enable-background="new 0 0 512 512" height="512" viewBox="0 0 512 512" width="512" xmlns="http://www.w3.org/2000/svg"><path d="m325.553 329.617c-49.83-41.538-81.542-104.076-81.542-174.021 0-48.473 15.239-93.383 41.175-130.217-123.91 1.341-223.95 102.186-223.95 226.415 0 90.632 53.244 168.828 130.159 205.014l108.101-52.708z" fill="#dadada"/><path d="m101.236 241.794c0-98.806 63.287-182.815 151.534-213.738-108.483 16.79-191.534 110.551-191.534 223.738 0 90.632 53.244 168.828 130.159 205.015l30.385-14.815c-71.699-38.008-120.544-113.397-120.544-200.2z" fill="#b7b5bd"/><path d="m484.844 388.206c-6.038-6.038-12.941-10.678-20.309-13.931-4.349-1.92-7.155-6.169-7.146-10.922 0-.058 0-.116 0-.173 0-52.781-42.787-95.568-95.568-95.568-43.167 0-79.644 28.622-91.501 67.922-1.811 6.002-8.145 9.278-14.204 7.671-19.571-5.19-41.296-.118-56.645 15.23-7.851 7.851-13.006 17.373-15.48 27.42-1.295 5.261-5.899 9.046-11.317 9.07-13.717.061-27.413 5.317-37.879 15.783-.439.439-.868.883-1.289 1.333-26.582 28.441-5.307 75.006 33.62 74.577l293.019-3.232c21.468-.237 40.015-15.671 43.474-36.86 3.361-20.589-2.898-42.443-18.775-58.32z" fill="#a29dae"/><path d="m403.569 42.961c-3.52 16.699-15.587 29.009-32.694 32.548-5.968 1.235-10.227 6.526-10.227 12.755v.688c0 6.116 4.294 11.387 10.282 12.632 17.073 3.553 29.116 15.848 32.636 32.522 1.266 5.997 6.358 10.408 12.647 10.408h.819c6.094 0 11.386-4.258 12.621-10.226 3.537-17.102 15.842-29.168 32.534-32.692 5.997-1.266 10.408-6.359 10.408-12.489v-1.134c0-6.13-4.411-11.223-10.408-12.489-16.692-3.524-28.996-15.589-32.534-32.691-1.235-5.968-6.526-10.227-12.779-10.227h-.821c-6.123.001-11.22 4.403-12.484 10.395z" fill="#f9d171"/><ellipse cx="235.096" cy="425.768" fill="#ffa1ac" rx="33.377" ry="26.58"/><ellipse cx="416.01" cy="425.768" fill="#ffa1ac" rx="33.377" ry="26.58"/><path d="m15.9 317.779c13.496 2.845 23.445 12.597 26.305 26.423.998 4.824 5.274 8.265 10.308 8.265h.556c4.943 0 9.202-3.471 10.209-8.31 2.871-13.798 12.808-23.531 26.284-26.376 4.847-1.023 8.412-5.138 8.412-10.221v-.662c0-4.925-3.441-9.202-8.264-10.2-13.822-2.859-23.573-12.803-26.421-26.293-1.023-4.847-5.139-8.412-10.093-8.412h-.916c-4.954 0-9.07 3.565-10.093 8.412-2.848 13.49-12.599 23.434-26.421 26.293-4.823.998-8.265 5.274-8.265 10.328v.663c-.001 4.949 3.556 9.069 8.399 10.09z" fill="#f9d171"/><path d="m369.405 108.925c13.874 2.887 23.902 12.879 26.825 26.729 2.034 9.632 10.252 16.359 19.985 16.359h.819c9.626 0 18.023-6.815 19.965-16.206 2.875-13.9 12.871-23.946 26.738-26.873 9.632-2.033 16.359-10.187 16.359-19.827v-1.134c0-9.641-6.727-17.794-16.359-19.827-13.868-2.928-23.863-12.974-26.738-26.873-1.942-9.391-10.406-16.207-20.124-16.207h-.82c-9.643 0-17.795 6.722-19.824 16.347-2.924 13.874-12.971 23.875-26.874 26.751-9.391 1.943-16.208 10.396-16.208 20.099v.688c.002 9.614 6.838 18.015 16.256 19.974zm-1.254-20.662c0-2.668 1.746-4.893 4.246-5.41 19.924-4.121 34.322-18.456 38.514-38.346.551-2.614 2.667-4.44 5.146-4.44 2.799 0 5.615 1.152 6.254 4.246 4.12 19.917 18.449 34.313 38.33 38.511 2.624.554 4.457 2.672 4.457 5.15 0 3.028-1.229 5.603-4.458 6.284-19.88 4.197-34.209 18.594-38.329 38.511-.616 2.98-3.314 4.245-6.095 4.245-2.612 0-4.746-1.791-5.309-4.457-4.191-19.855-18.564-34.179-38.446-38.316-2.919-.609-4.31-3.207-4.31-5.978z"/><path d="m247.049 386.538v13.644c0 4.142 3.358 7.5 7.5 7.5s7.5-3.358 7.5-7.5v-13.644c0-4.142-3.358-7.5-7.5-7.5s-7.5 3.358-7.5 7.5z"/><path d="m389.061 386.538v13.644c0 4.142 3.358 7.5 7.5 7.5s7.5-3.358 7.5-7.5v-13.644c0-4.142-3.358-7.5-7.5-7.5s-7.5 3.358-7.5 7.5z"/><path d="m338.621 394.849c-6.907 7.926-19.205 7.949-26.132 0-2.721-3.123-7.459-3.448-10.582-.727-3.123 2.722-3.448 7.459-.727 10.582 12.901 14.802 35.863 14.786 48.749 0 2.721-3.123 2.396-7.86-.727-10.582-3.122-2.722-7.859-2.396-10.581.727z"/><path d="m467.567 367.415c-1.653-.729-2.678-2.28-2.675-3.998-.198-1.464 1.38-26.273-14.432-52.852-2.118-3.56-6.72-4.73-10.28-2.612s-4.729 6.72-2.611 10.28c8.063 13.554 12.324 29.097 12.324 44.948v.159c-.014 7.69 4.546 14.676 11.617 17.798 24.837 10.964 39.071 37.472 34.712 64.182-2.858 17.513-18.064 30.369-36.155 30.569l-293.021 3.231c-18.134.198-29.791-11.453-34.627-22.426-12.009-27.252 11.153-54.139 40.29-54.268 8.786-.039 16.43-6.099 18.567-14.777 6.832-27.753 35.289-44.521 62.92-37.194 10.115 2.682 20.347-2.941 23.307-12.754 18.409-61.046 94.351-83.075 142.529-40.605 3.107 2.739 7.847 2.44 10.586-.667s2.441-7.846-.667-10.586c-37.961-33.464-96.126-35.012-135.768-.404-56.887-76.937-56.013-180.259-2.86-255.744 1.621-2.302 1.816-5.317.506-7.809-1.311-2.492-3.947-4.046-6.719-4.009-72.173.781-138.854 34.096-182.947 91.404-2.526 3.283-1.912 7.992 1.371 10.518 3.282 2.525 7.992 1.912 10.518-1.371 38.32-49.805 94.863-80.249 156.822-84.931-48.531 79.078-46.936 183.772 12.619 262.711-9.633 11.272-16.437 24.196-20.349 37.159-.618 2.046-2.86 3.183-5.102 2.588-35.629-9.449-72.469 12.113-81.33 48.108-.477 1.939-2.128 3.355-4.067 3.363-15.707.069-30.632 6.068-42.03 16.887-21.048-21.694-37.533-47.698-48.074-75.864 2.63-1.59 5.579-2.696 8.574-3.33 19.539-4.121 18.637-31.935.117-35.766-8.399-1.737-14.568-6.612-17.943-13.058-2.737-5.145-2.248-7.922-4.18-11.852-2.458-42.922 7.695-85.105 28.522-121.413 2.061-3.593.819-8.176-2.774-10.238-3.593-2.061-8.177-.819-10.238 2.774-20.608 35.927-31.361 77.141-30.856 118.95-10.499-.326-17.212 6.283-18.912 14.338-2.278 10.79-9.787 18.261-20.602 20.498-8.258 1.709-14.249 9.142-14.249 17.674v.664c0 8.481 5.902 15.648 14.353 17.429 10.795 2.275 18.27 9.785 20.507 20.604 1.708 8.254 9.132 14.245 17.652 14.245h.556c8.449 0 15.831-6.007 17.552-14.282.281-1.349.643-2.646 1.083-3.888 11.517 27.551 28.392 52.927 49.451 74.288-8.27 14.007-9.341 31.051-2.462 46.659 8.55 19.401 26.867 31.379 47.907 31.379.203 0 .408-.001.612-.003l293.021-3.231c25.397-.28 46.759-18.428 50.793-43.152 5.443-33.353-12.29-66.563-43.458-80.323zm-411.632-24.785c-.354 1.7-1.857 2.338-3.422 2.338-1.467 0-2.686-.939-2.963-2.284-3.45-16.68-15.451-28.733-32.103-32.242-1.44-.304-2.447-1.436-2.447-2.751.028-.1-.362-3.099 2.284-3.646 16.674-3.449 28.726-15.444 32.24-32.089.306-1.449 1.438-2.46 2.754-2.46.378.072 2.504-.49 3.487 1.869.35.845 4.166 26.835 32.425 32.681 1.84.381 2.157 1.945 2.284 3.517 0 1.471-1.046 2.585-2.461 2.883-1.668.354-3.583.869-5.457 1.53-13.764 4.776-23.549 15.895-26.621 30.654z"/></svg>