<svg id="Capa_1" enable-background="new 0 0 512 512" height="512" viewBox="0 0 512 512" width="512" xmlns="http://www.w3.org/2000/svg"><g><g><g><path d="m496 360.226c-55.752 0-111.309 5.323-165.92 15.86l-246.742 38.937-83.338 5.032v83.554h512v-5.702-137.681z" fill="#e5ecf5"/><g><path d="m158.491 403.163-30 4.734v-95.13h30z" fill="#d08a1c"/></g><g><path d="m128.491 407.897 30-4.734v-21.723l-30 4.734z" fill="#9e5e28"/></g><g><path d="m383.5 367.609-30 4.288v-103.074h30z" fill="#d08a1c"/></g><g><path d="m353.5 371.897 30-4.288v-20.238l-30 4.288z" fill="#9e5e28"/></g><g><path d="m458.188 254.065c-8.4-6.914-14.667-19.651-20.061-28.961h-140.299c-8.537 16.811-11.936 23.632-26.828 35.98 11.01 12.199 27.981 12.204 38.994 0 11.01 12.2 27.981 12.204 38.995 0 11.013 12.203 27.983 12.207 39.001 0 11.013 12.203 27.984 12.207 39.001 0 11.017 12.206 27.987 12.21 39.008 0 .001.002-7.811-7.019-7.811-7.019z" fill="#d3f850"/></g><g><path d="m458.188 254.065c-2.269-1.868-4.378-4.168-6.36-6.703-8.662 1.955-17.921-.896-24.835-8.557-11.018 12.207-27.988 12.203-39.001 0-11.018 12.206-27.988 12.202-39.001 0-9.814 10.874-24.354 12.047-35.196 3.545 3.276-5.488 6.279-11.269 9.374-17.364l-25.34.119c-8.001 16.438-13.83 25.575-26.828 35.98 5.531 6.248 13.961 10.056 22.347 8.977 6.02-.717 11.889-3.705 16.647-8.976 11.01 12.2 27.981 12.204 38.995 0 11.013 12.203 27.983 12.207 39.001 0 11.013 12.203 27.984 12.207 39.001 0 11.017 12.206 27.987 12.21 39.008 0 0 0-7.812-7.021-7.812-7.021z" fill="#6ad34d"/></g><g><path d="m426.523 180.102h-117.092c-6.603 13.595-14.904 27.756-27.98 36.003 11.984 11.849 31.271 11.85 43.257 0 11.986 11.852 31.275 11.853 43.263 0 11.987 11.853 31.276 11.853 43.263 0 11.989 11.856 31.281 11.856 43.271 0-13.086-8.259-21.368-22.396-27.982-36.003z" fill="#d3f850"/></g><g><path d="m439.488 201.977c-9.852 2.161-20.558-.555-28.255-8.166-11.987 11.853-31.277 11.853-43.263 0-11.404 11.276-29.412 11.816-41.458 1.637 3.243-5.38 6.046-10.686 8.235-15.193l-25.315-.153c-6.586 13.56-14.878 27.689-27.98 36.003 11.563 11.61 31.271 12.005 43.257 0 11.986 11.852 31.275 11.853 43.263 0 11.987 11.853 31.276 11.853 43.263 0 11.989 11.856 31.281 11.856 43.271 0-5.885-3.714-10.792-8.621-15.018-14.128z" fill="#6ad34d"/></g><g><path d="m436.962 165.864c-8.986-8.211-16.179-20.368-22.525-30.715l-93.069.242c-6.264 10.14-13.439 22.233-22.243 30.316l-5.555 5.394c14.294 12.11 35.307 12.11 49.602 0 14.294 12.11 35.308 12.111 49.603 0 14.297 12.114 35.314 12.114 49.611 0 0 .001-5.424-5.237-5.424-5.237z" fill="#d3f850"/></g><g><path d="m436.962 165.864c-3.065-2.8-5.917-6.065-8.602-9.555-12.06 3.518-25.496 1.011-35.586-7.538-14.295 12.111-35.309 12.11-49.603 0-2.418 2.048-5.031 3.74-7.768 5.094 4.492-6.896 8.64-13.831 11.541-18.528l-25.576.054c-7.361 12.566-16.462 25.935-27.799 35.71 5.973 5.062 13.496 8.222 21.291 8.919 9.965.91 20.216-2.06 28.312-8.919 14.294 12.11 35.308 12.111 49.603 0 14.297 12.114 35.314 12.114 49.611 0 0 .001-5.424-5.237-5.424-5.237z" fill="#6ad34d"/></g><g><path d="m410.475 105.586s-42.498-68.353-42.498-68.353-44.475 73.794-52.807 81.115c0 0-8.073 7.801-8.073 7.801 11.275 12.029 29.311 12.026 40.584 0 11.275 12.029 29.312 12.026 40.584 0 11.278 12.032 29.315 12.03 40.591 0-6.276-6.03-13.997-13.021-18.381-20.563z" fill="#d3f850"/></g><g><path d="m428.857 126.149c-4.861-4.67-10.581-9.918-14.954-15.549-8.992 1.827-18.622-.998-25.637-8.482-9.458 10.09-23.674 11.712-34.667 4.87 9.286-13.997 20.948-32.752 29.115-46.053-8.06-12.963-14.737-23.702-14.737-23.702-1.564 1.835-36.406 62.013-52.807 81.115 0 0-8.073 7.801-8.073 7.801 6.443 7.022 16.523 10.512 25.885 8.428h.001c5.371-1.145 10.503-3.952 14.698-8.427 7.094 7.542 16.74 10.358 25.885 8.428 5.371-1.145 10.504-3.952 14.699-8.428 6.365 6.79 14.881 9.745 23.121 8.872 6.362-.675 12.558-3.631 17.471-8.873z" fill="#6ad34d"/></g><g><path d="m233.701 298.916c-8.4-6.914-14.667-19.651-20.061-28.961h-140.299c-8.537 16.811-11.936 23.632-26.828 35.98 11.01 12.199 27.981 12.204 38.994 0 11.01 12.2 27.981 12.204 38.995 0 11.013 12.203 27.983 12.207 39.001 0 11.013 12.203 27.984 12.207 39.001 0 11.017 12.206 27.987 12.21 39.008 0 .002.002-7.811-7.018-7.811-7.019z" fill="#6ad34d"/></g><g><g><path d="m106.439 313.453c-.517.573-1.052 1.111-1.594 1.63 1.005.007 2.01-.051 3.011-.17-.481-.468-.956-.949-1.417-1.46z" fill="#31a469"/></g><g><path d="m223.437 313.454c-.519.575-1.055 1.114-1.599 1.634 1.008.007 2.016-.05 3.021-.17-.483-.469-.96-.952-1.422-1.464z" fill="#31a469"/></g><g><path d="m184.436 313.453c-.518.574-1.053 1.112-1.597 1.632 1.007.007 2.013-.051 3.016-.17-.482-.468-.958-.95-1.419-1.462z" fill="#31a469"/></g><g><path d="m145.435 313.453c-.518.574-1.053 1.112-1.596 1.632 1.006.007 2.013-.051 3.015-.17-.482-.468-.958-.95-1.419-1.462z" fill="#31a469"/></g></g><g><path d="m233.701 298.916c-2.269-1.868-4.378-4.168-6.36-6.703-8.662 1.955-17.921-.896-24.835-8.557-11.018 12.207-27.988 12.203-39.001 0-11.018 12.206-27.988 12.202-39.001 0-9.814 10.874-24.354 12.047-35.196 3.545 3.276-5.488 6.279-11.269 9.374-17.364l-25.34.119c-8.001 16.438-13.83 25.575-26.828 35.98 5.531 6.248 13.961 10.056 22.347 8.977 6.02-.717 11.889-3.705 16.647-8.976 11.01 12.2 27.981 12.204 38.995 0 11.013 12.203 27.983 12.207 39.001 0 11.013 12.203 27.984 12.207 39.001 0 11.017 12.206 27.987 12.21 39.008 0 .001 0-7.812-7.02-7.812-7.021z" fill="#31a469"/></g><g><path d="m202.037 224.953h-117.092c-6.603 13.595-14.904 27.756-27.98 36.003 11.984 11.849 31.271 11.85 43.257 0 11.986 11.852 31.275 11.853 43.263 0 11.987 11.853 31.276 11.853 43.263 0 11.989 11.856 31.281 11.856 43.271 0-13.086-8.258-21.369-22.396-27.982-36.003z" fill="#6ad34d"/></g><g><g><path d="m121.668 267.81c-.695.687-1.417 1.33-2.158 1.938 1.446.11 2.898.118 4.345.024-.752-.614-1.483-1.266-2.187-1.962z" fill="#31a469"/></g><g><path d="m164.93 267.81c-.695.687-1.417 1.33-2.158 1.938 1.446.11 2.898.118 4.345.024-.751-.614-1.482-1.266-2.187-1.962z" fill="#31a469"/></g><g><path d="m208.194 267.81c-.696.688-1.418 1.332-2.161 1.94 1.448.11 2.901.119 4.35.025-.752-.616-1.484-1.268-2.189-1.965z" fill="#31a469"/></g></g><g><path d="m215.002 246.828c-9.852 2.161-20.558-.555-28.255-8.166-11.987 11.853-31.277 11.853-43.263 0-11.404 11.276-29.412 11.816-41.458 1.637 3.243-5.38 6.046-10.686 8.235-15.193l-25.315-.153c-6.586 13.56-14.878 27.689-27.98 36.003 11.563 11.61 31.271 12.005 43.257 0 11.986 11.852 31.275 11.853 43.263 0 11.987 11.853 31.276 11.853 43.263 0 11.989 11.856 31.281 11.856 43.271 0-5.886-3.714-10.792-8.621-15.018-14.128z" fill="#31a469"/></g><g><path d="m212.476 210.715c-8.986-8.211-16.179-20.368-22.525-30.715l-93.069.242c-6.264 10.14-13.439 22.233-22.243 30.316l-5.555 5.394c14.294 12.11 35.307 12.11 49.602 0 14.294 12.11 35.308 12.111 49.603 0 14.297 12.114 35.314 12.114 49.611 0-.001.001-5.425-5.236-5.424-5.237z" fill="#6ad34d"/></g><g><g><path d="m189.582 224.874c-.204-.166-.411-.325-.613-.496-.154.13-.313.252-.469.379.36.044.721.084 1.082.117z" fill="#31a469"/></g><g><path d="m139.976 224.872c-.203-.165-.409-.324-.61-.494-.153.13-.312.25-.467.378.358.043.717.083 1.077.116z" fill="#31a469"/></g></g><g><path d="m212.476 210.715c-3.065-2.8-5.917-6.065-8.602-9.555-12.06 3.518-25.496 1.011-35.586-7.538-14.295 12.111-35.309 12.11-49.603 0-2.418 2.048-5.031 3.74-7.768 5.094 4.492-6.896 8.64-13.831 11.541-18.528l-25.576.054c-7.361 12.566-16.462 25.935-27.799 35.71 5.973 5.062 13.496 8.222 21.291 8.919 9.965.91 20.216-2.06 28.312-8.919 14.294 12.11 35.308 12.111 49.603 0 14.297 12.114 35.314 12.114 49.611 0-.001.001-5.425-5.236-5.424-5.237z" fill="#31a469"/></g><g><path d="m256.32 404.693c-16.263-3.061-37.252-5.599-58.958-7.664l-114.024 17.994s115.505 4.298 172.662 15.058c61.917 8.011 170.826 42.282 256 67.826v-25.483c-83.681-31.584-193.84-59.729-255.68-67.731z" fill="#cad8eb"/></g><g><path d="m16 487.566v-67.511h-16v83.554h512v-5.702l-34.478-10.341z" fill="#cad8eb"/></g><g><path d="m16 442.662h15v15h-15z" fill="#fff"/></g><g><path d="m46 442.662h15v15h-15z" fill="#fff"/></g><g><path d="m451 382.534h15v15h-15z" fill="#fff"/></g><g><path d="m481 382.534h15v15h-15z" fill="#fff"/></g><g><path d="m333.936 76.277 34.042-53.824 26.96 43.363c4.552 7.321-.713 16.794-9.334 16.794h-15.336c-5.78 0-11.168 2.926-14.315 7.775-3.867 5.957-11.782 7.739-17.828 4.012-6.197-3.821-8.08-11.967-4.189-18.12z" fill="#e5ecf5"/></g><g><path d="m394.938 65.815-3.126-5.028c-5.092 3.753-18.513.946-24.39 2.152l12.974-20.513-12.419-19.975-34.042 53.824c-5.739 8.555 1.348 20.718 11.58 20.049 11.818-.575 10.706-13.87 24.753-13.717h15.336c8.622.002 13.886-9.471 9.334-16.792z" fill="#cad8eb"/></g><g><path d="m185.989 150.437s-42.498-68.353-42.498-68.353-44.475 73.794-52.807 81.116c0 0-8.073 7.801-8.073 7.801 11.275 12.029 29.311 12.026 40.584 0 11.275 12.029 29.312 12.026 40.584 0 11.278 12.032 29.315 12.03 40.591 0-6.276-6.031-13.998-13.022-18.381-20.564z" fill="#6ad34d"/></g><g><path d="m204.371 171.001c-4.861-4.67-10.581-9.918-14.954-15.549-8.992 1.827-18.622-.998-25.637-8.482-9.458 10.09-23.674 11.712-34.667 4.87 9.286-13.997 20.948-32.752 29.115-46.053-8.06-12.963-14.737-23.702-14.737-23.702-1.564 1.835-36.406 62.013-52.807 81.115 0 0-8.073 7.801-8.073 7.801 6.443 7.022 16.523 10.512 25.885 8.428h.001c5.371-1.145 10.503-3.952 14.698-8.427 7.094 7.542 16.74 10.358 25.885 8.428 5.371-1.145 10.504-3.952 14.699-8.428 6.365 6.79 14.881 9.745 23.121 8.872 6.362-.676 12.558-3.632 17.471-8.873z" fill="#31a469"/></g></g></g><g><path d="m463.999 448.747h15v74.134h-15z" transform="matrix(.288 -.958 .958 .288 -129.457 797.551)"/><path d="m406 460.554h15v15.663h-15z" transform="matrix(.288 -.958 .958 .288 -154.075 729.586)"/><path d="m391 358.998v-51.389h-15v53.328c-5.007.686-10.008 1.405-15 2.176v-86.282c4.923 1.171 10.077 1.171 15-.004v15.782h15v-19.462c11.119 6.68 25.551 6.022 35.992-2.022 17.983 13.329 36.606 5.027 50.146-10.113-10.124-8.695-22.759-19.679-28.174-32.068 5.405-2.248 13.018-9.456 17.631-13.144-14.014-10.072-22.161-16.234-29.816-32.335 4.915-2.097 12.799-8.429 17.249-11.545-10.404-9.644-22.066-21.019-28.77-33.575 4.165-2.103 11.017-8.892 14.634-11.96 0 0-19.276-11.628-37.25-47.598 2.355-5.529 1.903-11.725-1.335-16.932l-33.274-53.52-40.436 63.933c-3.507 5.496-4.183 12.46-1.743 18.511 0 0-11.236 22.111-29.794 35.608 3.651 3.093 10.426 9.817 14.616 11.952 0 0-8.017 16.085-28.732 33.596 4.492 3.144 12.276 9.407 17.229 11.533-7.002 15.05-16.349 23.386-30.181 32.029 4.814 3.839 12.619 11.277 18.275 13.579-6.674 14.943-15.752 21.442-27.406 31.936 13.664 15.18 32.025 23.435 50.132 10.111 10.445 8.048 24.884 8.703 36.005 2.011v92.436c-4.625 1.401-170.724 27.289-180.01 28.817v-76.697c11.186 7.018 25.914 6.453 36.516-1.716 17.976 13.319 36.603 5.037 50.146-10.111-10.886-6.94-28.175-32.069-28.175-32.069 5.406-2.248 13.019-9.457 17.632-13.145-14.014-10.073-22.16-16.233-29.816-32.335 4.915-2.097 12.799-8.429 17.249-11.545-12.132-6.158-28.771-33.575-28.771-33.575 4.166-2.103 11.017-8.893 14.635-11.96-18.591-11.308-58.913-83.615-71.914-103.355-.001.001-25.35 40.769-25.35 40.769l12.738 7.921 12.61-20.281c8.99 12.963 37.509 64.757 49.452 74.101-12.696 6.113-20.252-1.085-29.164-9.414-11.247 15.059-31.267 11.86-40.583-.001-8.913 8.336-16.48 15.52-29.159 9.415 10.229-8.482 21.038-28.921 28.268-40.027l-12.738-7.921c-5.668 8.482-16.51 28.731-24.096 35.366 0 0-13.897 13.429-13.897 13.429 3.651 3.093 10.425 9.818 14.615 11.953 0 0-7.957 15.795-28.729 33.595 4.491 3.145 12.274 9.408 17.227 11.534-7.004 15.052-16.35 23.385-30.182 32.028 4.814 3.839 12.619 11.277 18.275 13.579-6.674 14.944-15.752 21.442-27.406 31.936l8.987 8.297c11.445 10.565 29 11.169 41.145 1.815 10.282 7.922 24.435 8.677 35.482 2.316v83.199l-70.129 11.067h-50.856v15c128.162-2.208 263.919-1.418 388.842 41.251l4.316-14.365c-81.623-25.494-165.706-39.958-247.438-41.67 107.119-14.783 259.051-48.837 366.28-45.045v-15s-78.158-1.287-121 6.272zm-50.725-278.712 27.648-43.717c.209 1.76 24.343 35.574 20.733 36.744-.374.671-1.265 1.795-3.053 1.795h-15.336c-8.354 0-16.058 4.184-20.605 11.191-3.971 6.042-13.249.128-9.387-6.013zm-3.743 21.727c9.05 4.081 20.162 1.012 25.713-7.547 5.489-8.445 21.392-1.985 29.198-5.284 6.905 10.763 16.156 28.113 25.986 36.358-12.697 6.113-19.034.716-29.164-9.414-11.308 16.249-29.691 13.951-40.583 0-8.913 8.336-16.481 15.518-29.158 9.414 0-.001 11.853-12.522 18.008-23.527zm-10.875 40.664c7.712.391 15.532-1.827 22.023-6.666 12.014 8.954 28.571 8.954 40.585 0 6.5 4.833 14.258 7.065 22.023 6.67 5.708 9.46 12.122 19.539 20.087 27.225-14.07 6.566-26.287 1.319-37.601-8.07-12.829 12.829-32.668 13.049-49.604 0-8.588 8.588-23.56 14.631-37.611 8.059 8.7-7.354 20.098-27.218 20.098-27.218zm-11.684 44.888c10.064.99 20.382-1.426 29.198-7.249 15.072 9.956 34.531 9.956 49.604 0 8.827 5.809 19.028 8.249 29.204 7.244 5.057 10.249 11.254 20.554 19.918 28.129-12.739 5.293-21.684-.36-30.663-9.339-10.133 14.11-30.164 16.188-43.264-.001-10.108 12.962-28.616 14.648-43.264 0-9.286 8.437-17.935 14.621-30.646 9.339 11.499-8.787 19.913-28.123 19.913-28.123zm-3.979 63.314c-8.264 7.848-15.233 15.803-27.438 9.906 8.816-7.362 14.785-18.058 19.828-28.23 7.807.144 15.65-2.133 22.323-6.845 12.949 9.149 30.313 9.149 43.263 0 12.949 9.148 30.314 9.147 43.264 0 6.73 4.744 14.617 7.049 22.515 6.846 5.473 9.964 11.754 21.006 20.697 28.232-12.163 5.914-19.229-2.079-27.453-9.907-6.275 13.402-27.576 16.603-39.003 0-8.343 14.451-31.739 11.618-39.001-.003-8.793 14.39-26.798 15.922-38.995.001zm-214.488-54.3 5.664-9.052c7.713.391 15.533-1.827 22.024-6.666 12.015 8.954 28.572 8.954 40.585 0 6.5 4.833 14.257 7.065 22.022 6.669 5.709 9.461 12.12 19.538 20.087 27.226-14.068 6.564-26.288 1.318-37.601-8.071-16.12 14.46-33.584 14.32-49.604-.001-11.311 9.396-23.561 14.634-37.612 8.061 5.473-5.491 10.325-11.596 14.435-18.166zm-6.019 35.836c10.063.99 20.381-1.425 29.197-7.25 15.072 9.956 34.531 9.955 49.604 0 8.827 5.809 19.028 8.248 29.204 7.244 5.057 10.25 11.253 20.555 19.918 28.129-12.74 5.293-21.368-.907-30.663-9.339-9.257 11.655-27.684 15.581-43.265 0-9.223 11.655-26.951 16.311-43.263-.001-9.285 8.437-17.933 14.622-30.646 9.339 11.499-9.146 19.914-28.122 19.914-28.122zm-3.979 63.314c-8.264 7.848-15.233 15.802-27.438 9.907 8.814-7.36 14.786-18.058 19.828-28.23 7.807.144 15.65-2.133 22.323-6.846 12.951 9.149 30.315 9.148 43.263 0 12.95 9.148 30.315 9.148 43.264 0 6.73 4.744 14.617 7.049 22.515 6.846 5.473 9.964 11.756 21.008 20.697 28.232-12.163 5.915-19.229-2.08-27.453-9.907-8.749 14.347-32.7 13.369-39.003 0-6.911 11.97-30.283 11.97-39.001-.001-8.794 11.971-25.205 16.262-38.995-.001zm50.482 25.818c4.908 1.255 10.06 1.327 15 .235v74.973l-15 2.367z"/></g></g></svg>