<svg id="Capa_1" enable-background="new 0 0 512 512" height="512" viewBox="0 0 512 512" width="512" xmlns="http://www.w3.org/2000/svg"><g><path d="m463.938 136.899c-4.326-2.383-7.59-6.318-8.826-11.1-16.478-63.734-74.36-110.809-143.243-110.809-64.359 0-119.088 41.108-139.439 98.49-2.081 5.869-6.915 10.398-13.024 11.605-33.559 6.631-60.673 31.159-71 63.228-2.379 7.388-9.074 12.522-16.835 12.522h-.68c-39.309 0-71.146 31.994-70.89 71.363.139 21.439 17.723 38.693 39.162 38.693h378.141c51.311 0 94.375-40.837 94.694-92.146.219-35.263-19.254-65.98-48.06-81.846z" fill="#cde9fa"/><path d="m280.755 310.891c-33.609-11.263-52.712-83.238-32.91-117.345 3.315-5.711 2.438-13.051-2.188-17.763-25.33-25.797-34.657-115.941 15.671-151.924-41.4 15.057-74.17 48.078-88.904 89.639-2.144 6.047-7.337 10.424-13.622 11.709-33.318 6.813-60.193 31.288-70.431 63.218-2.356 7.349-9.082 12.41-16.799 12.41h-.68c-39.118 0-70.837 31.684-70.892 70.79-.03 21.595 17.662 39.266 39.257 39.266z" fill="#a2ddfd"/><g><g><ellipse cx="225.492" cy="182.553" fill="#fff" rx="31.872" ry="25.381"/><ellipse cx="398.246" cy="182.553" fill="#fff" rx="31.872" ry="25.381"/><ellipse cx="311.869" cy="163.052" fill="#565e75" rx="16.918" ry="18.931"/></g><g fill="#565e75"><path d="m230.82 159.426c-4.143 0-7.5-3.357-7.5-7.5v-12.362c0-4.143 3.357-7.5 7.5-7.5s7.5 3.357 7.5 7.5v12.362c0 4.142-3.357 7.5-7.5 7.5z"/><path d="m392.919 159.426c-4.143 0-7.5-3.357-7.5-7.5v-12.362c0-4.143 3.357-7.5 7.5-7.5s7.5 3.357 7.5 7.5v12.362c0 4.142-3.357 7.5-7.5 7.5z"/></g></g><path d="m175.345 422.028-1.336-.211c2.341-2.575 2.638-6.522.512-9.448-2.435-3.352-7.124-4.095-10.476-1.659l-10.768 7.824-18.808-2.979-8.272-16.234 8.646-16.968 12.658-4.113c3.94-1.28 6.095-5.51 4.815-9.45-1.117-3.44-4.488-5.517-7.944-5.138l.614-1.206c1.881-3.691.413-8.207-3.277-10.088-3.691-1.881-8.207-.413-10.088 3.277l-.614 1.205c-1.726-3.022-5.39-4.522-8.826-3.406-3.939 1.279-6.096 5.511-4.815 9.45l4.112 12.659-8.646 16.968-17.995 2.849-13.465-13.465v-13.31c0-4.143-3.357-7.5-7.5-7.5-3.617 0-6.635 2.56-7.342 5.967l-.956-.956c-2.929-2.93-7.678-2.929-10.606-.001-2.93 2.93-2.93 7.678-.001 10.606l.957.957c-3.407.707-5.967 3.725-5.967 7.342 0 4.143 3.357 7.5 7.5 7.5h13.309l13.467 13.467-2.85 17.994-16.968 8.645-12.659-4.113c-3.935-1.278-8.171.875-9.45 4.815-1.118 3.44.385 7.101 3.406 8.827l-1.205.614c-3.69 1.881-5.158 6.396-3.277 10.088 1.888 3.702 6.407 5.152 10.088 3.277l1.224-.623c-.41 3.699 1.865 6.896 5.12 7.953 3.94 1.28 8.17-.876 9.45-4.815l4.113-12.658 16.969-8.646 16.233 8.271 2.979 18.809-7.823 10.768c-2.435 3.351-1.692 8.041 1.659 10.476 2.891 2.102 6.823 1.863 9.445-.525l.214 1.348c.651 4.111 4.517 6.885 8.58 6.234 4.092-.647 6.883-4.489 6.234-8.58l-.211-1.335c3.171 1.431 7.017.495 9.143-2.433 2.426-3.337 1.705-8.032-1.659-10.476l-10.768-7.824-2.979-18.807 12.884-12.884 18.809 2.979 7.824 10.768c2.427 3.342 7.116 4.102 10.476 1.659 2.749-1.997 3.957-5.732 2.411-9.147l1.357.215c4.062.649 7.929-2.121 8.58-6.234.646-4.09-2.145-7.931-6.237-8.579zm-65.562 9.467-13.332-6.794 2.34-14.78 14.78-2.34 6.793 13.333z" fill="#a0bce7"/><path d="m385.167 436.636c-.648-4.092-4.482-6.891-8.581-6.234l-13.148 2.081-15.405-11.192v-18.221l15.407-11.193 13.146 2.082c4.538.725 8.674-2.79 8.674-7.411.002-3.119-1.948-5.91-4.843-7.005l1.098-.798c3.352-2.434 4.094-7.125 1.659-10.475-2.433-3.352-7.124-4.095-10.476-1.659l-1.094.795c-.165-3.476-2.745-6.478-6.318-7.043-4.093-.651-7.933 2.144-8.581 6.233l-2.082 13.147-15.406 11.193-17.328-5.631-5.885-18.111 6.042-11.859c1.874-3.676.427-8.199-3.278-10.087-3.222-1.641-7.073-.731-9.25 1.983l-.418-1.286c-1.279-3.94-5.514-6.092-9.45-4.815-3.939 1.28-6.096 5.511-4.815 9.45l.418 1.287c-3.357-.916-7.008.61-8.651 3.832-1.881 3.691-.413 8.207 3.277 10.088l11.859 6.043 5.885 18.112-10.709 14.739h-19.043l-9.412-9.412c-2.93-2.928-7.678-2.928-10.607 0-2.557 2.558-2.881 6.502-.972 9.412h-1.352c-4.143 0-7.5 3.357-7.5 7.5s3.357 7.5 7.5 7.5h1.353c-1.923 2.932-1.569 6.87.972 9.412 2.931 2.929 7.678 2.928 10.607 0l9.412-9.412h19.043l10.709 14.74-5.885 18.111-11.859 6.043c-3.69 1.881-5.158 6.398-3.277 10.088 1.643 3.222 5.294 4.749 8.65 3.833l-.418 1.286c-1.28 3.939.876 8.17 4.815 9.45 3.94 1.28 8.171-.876 9.45-4.816l.424-1.306c4.447 5.556 13.336 2.357 13.341-4.68 0-1.147-.263-2.311-.819-3.403l-6.042-11.859 5.884-18.111 17.328-5.631 15.407 11.193 2.082 13.146c.585 3.694 3.773 6.328 7.398 6.328 4.043 0 7.313-3.18 7.5-7.137l1.094.795c3.343 2.431 8.036 1.7 10.476-1.659 2.435-3.351 1.692-8.041-1.659-10.476l-1.098-.798c3.285-1.243 5.311-4.637 4.751-8.182zm-52.134-16.975-14.231 4.625-8.796-12.106 8.796-12.107 14.231 4.625z" fill="#a0bce7"/><path d="m229.835 477.38 6.827-6.827c2.929-2.93 2.929-7.678 0-10.607-2.93-2.928-7.678-2.928-10.607 0l-6.827 6.827-6.827-6.827c-2.93-2.928-7.678-2.928-10.607 0-2.929 2.93-2.929 7.678 0 10.607l6.827 6.827-6.827 6.827c-2.929 2.93-2.929 7.678 0 10.607 2.931 2.929 7.678 2.928 10.607 0l6.827-6.827 6.827 6.827c2.931 2.929 7.678 2.928 10.607 0 2.929-2.93 2.929-7.678 0-10.607z" fill="#7ca2dd"/><path d="m444.804 415.846 6.827-6.826c2.93-2.929 2.93-7.678.001-10.606-2.93-2.929-7.679-2.93-10.606-.001l-6.828 6.827-6.828-6.827c-2.928-2.928-7.677-2.929-10.606.001-2.929 2.929-2.929 7.678.001 10.606l6.826 6.826-6.826 6.826c-2.93 2.929-2.93 7.678-.001 10.606 2.928 2.928 7.677 2.931 10.606.001l6.828-6.827 6.828 6.827c2.928 2.928 7.677 2.929 10.606-.001 2.929-2.929 2.929-7.678-.001-10.606z" fill="#7ca2dd"/><ellipse cx="76.001" cy="79.922" fill="#a2ddfd" rx="33.992" ry="33.992" transform="matrix(.23 -.973 .973 .23 -19.244 135.528)"/></g></svg>