<svg id="Capa_1" enable-background="new 0 0 512 512" height="512" viewBox="0 0 512 512" width="512" xmlns="http://www.w3.org/2000/svg"><path d="m461.365 292.239 43.135-36.239-43.135-36.238 28.207-48.776-52.961-19.235 9.751-55.492-56.347.009-9.734-55.501-52.95 19.248-28.192-48.78v489.531l28.191-48.78 52.951 19.248 9.734-55.501 56.346.01-9.751-55.493 52.962-19.235z" fill="#ff7a3c"/><path d="m313.941 96.802-14.802-85.567-43.139 36.265-43.139-36.265-28.191 48.78-52.951-19.248-9.733 55.5-56.347-.009 9.751 55.493-52.962 19.235 28.207 48.776-43.135 36.238 43.135 36.239-28.207 48.775 52.961 19.235-9.751 55.493 56.347-.009 9.734 55.5 52.95-19.248 28.192 48.781 43.139-36.266 43.139 36.266 14.802-85.568z" fill="#ff9a42"/><path d="m256 82.5v347c95.821 0 173.5-77.679 173.5-173.5s-77.679-173.5-173.5-173.5z" fill="#ffba48"/><path d="m399.5 256c0-95.821-64.247-173.5-143.5-173.5-95.821 0-173.5 77.679-173.5 173.5s77.679 173.5 173.5 173.5c79.253 0 143.5-77.678 143.5-173.5z" fill="#ffd185"/><circle cx="356" cy="256" fill="#ff9a42" r="22.5"/><circle cx="156" cy="256" fill="#ff9a42" r="22.5"/><path d="m256 301c-17.729 0-33.629-11.222-39.566-27.924-1.388-3.903.651-8.191 4.555-9.579 3.9-1.385 8.191.651 9.578 4.555 3.816 10.736 14.037 17.948 25.433 17.948s21.617-7.213 25.434-17.949c1.387-3.903 5.678-5.94 9.578-4.555 3.903 1.388 5.942 5.676 4.555 9.579-5.938 16.703-21.838 27.925-39.567 27.925z" fill="#ff7a3c"/><path d="m296 226c0-4.136 3.364-7.5 7.5-7.5s7.5 3.364 7.5 7.5c0 4.142 3.357 7.5 7.5 7.5s7.5-3.358 7.5-7.5c0-12.407-10.094-22.5-22.5-22.5s-22.5 10.094-22.5 22.5c0 4.142 3.357 7.5 7.5 7.5s7.5-3.358 7.5-7.5z"/><path d="m201 226c0-4.136 3.364-7.5 7.5-7.5s7.5 3.364 7.5 7.5c0 4.142 3.357 7.5 7.5 7.5s7.5-3.358 7.5-7.5c0-12.407-10.094-22.5-22.5-22.5s-22.5 10.094-22.5 22.5c0 4.142 3.357 7.5 7.5 7.5s7.5-3.358 7.5-7.5z"/><path d="m256 75c-99.804 0-181 81.196-181 181 0 42.556 15.071 83.908 42.437 116.439 2.666 3.169 7.396 3.578 10.567.911 3.17-2.667 3.578-7.397.911-10.567-25.095-29.831-38.915-67.755-38.915-106.783 0-91.533 74.468-166 166-166s166 74.467 166 166-74.468 166-166 166c-39.027 0-76.95-13.82-106.783-38.915-3.169-2.667-7.9-2.258-10.567.911-2.667 3.17-2.259 7.901.911 10.567 32.532 27.367 73.884 42.437 116.439 42.437 99.804 0 181-81.196 181-181s-81.196-181-181-181z"/><path d="m509.324 250.258-38.315-32.19 25.056-43.327c1.111-1.921 1.314-4.235.556-6.32s-2.402-3.727-4.487-4.484l-47.046-17.087 8.661-49.293c.384-2.183-.218-4.424-1.644-6.121-1.425-1.697-3.528-2.677-5.744-2.677l-50.046.008-8.646-49.296c-.384-2.184-1.714-4.087-3.634-5.197s-4.233-1.313-6.316-.556l-47.04 17.1-25.047-43.336c-1.109-1.92-3.012-3.25-5.196-3.634-2.185-.386-4.425.218-6.123 1.646l-38.313 32.208-38.312-32.208c-1.698-1.428-3.94-2.032-6.123-1.646-2.185.383-4.087 1.714-5.196 3.634l-25.046 43.336-47.04-17.1c-2.083-.756-4.396-.554-6.316.556s-3.25 3.013-3.634 5.197l-8.646 49.295-50.046-.008c-2.217 0-4.319.98-5.744 2.677-1.426 1.697-2.027 3.938-1.644 6.121l8.661 49.294-47.046 17.087c-2.085.757-3.729 2.399-4.487 4.484s-.556 4.399.556 6.319l25.055 43.327-38.315 32.19c-1.698 1.426-2.677 3.528-2.677 5.743s.979 4.317 2.676 5.742l38.315 32.19-25.056 43.327c-1.111 1.921-1.314 4.235-.556 6.32s2.402 3.727 4.487 4.484l47.046 17.087-8.661 49.293c-.384 2.183.218 4.424 1.644 6.121 1.425 1.697 3.528 2.677 5.744 2.677l50.046-.008 8.646 49.296c.384 2.184 1.714 4.087 3.634 5.197s4.232 1.313 6.316.556l47.04-17.1 25.047 43.337c1.109 1.92 3.012 3.25 5.196 3.634s4.425-.219 6.123-1.646l38.313-32.208 38.313 32.208c1.362 1.145 3.074 1.759 4.826 1.759.432 0 .865-.037 1.297-.113 2.185-.383 4.087-1.714 5.196-3.634l25.046-43.336 47.04 17.1c2.084.757 4.396.554 6.316-.556s3.25-3.013 3.634-5.197l8.646-49.295 50.046.008c2.217 0 4.319-.98 5.744-2.677 1.426-1.697 2.027-3.938 1.644-6.121l-8.661-49.294 47.046-17.087c2.085-.757 3.729-2.399 4.487-4.484s.556-4.399-.556-6.319l-25.055-43.327 38.315-32.19c1.696-1.425 2.676-3.527 2.676-5.742s-.979-4.319-2.676-5.744zm-52.783 36.238c-2.787 2.342-3.49 6.346-1.668 9.497l23.725 41.027-44.548 16.18c-3.421 1.243-5.456 4.762-4.826 8.347l8.204 46.693-47.412-.008c-3.644 0-6.759 2.617-7.389 6.204l-8.189 46.692-44.545-16.193c-3.423-1.242-7.235.147-9.056 3.296l-23.717 41.039-36.294-30.511c-2.789-2.346-6.863-2.346-9.652 0l-36.294 30.511-23.718-41.039c-1.372-2.374-3.879-3.748-6.495-3.748-.854 0-1.719.146-2.561.452l-44.545 16.193-8.189-46.693c-.63-3.588-3.746-6.205-7.389-6.204l-47.412.008 8.204-46.693c.63-3.585-1.405-7.104-4.826-8.347l-44.548-16.18 23.726-41.027c1.822-3.151 1.119-7.155-1.668-9.497l-36.3-30.495 36.3-30.496c2.787-2.342 3.49-6.346 1.668-9.497l-23.725-41.027 44.548-16.18c3.421-1.243 5.456-4.762 4.826-8.347l-8.204-46.693 47.412.008c3.644 0 6.759-2.617 7.389-6.204l8.189-46.692 44.545 16.193c3.421 1.242 7.236-.147 9.056-3.296l23.717-41.039 36.294 30.511c2.789 2.346 6.863 2.346 9.652 0l36.294-30.511 23.718 41.039c1.82 3.149 5.634 4.539 9.056 3.296l44.545-16.193 8.189 46.693c.63 3.588 3.746 6.205 7.389 6.204l47.412-.008-8.204 46.693c-.63 3.585 1.405 7.104 4.826 8.347l44.548 16.18-23.726 41.027c-1.822 3.151-1.119 7.155 1.668 9.497l36.3 30.496z"/></svg>