<svg id="Layer_1" enable-background="new 0 0 512 512" height="512" viewBox="0 0 512 512" width="512" xmlns="http://www.w3.org/2000/svg"><g id="XMLID_270_"><circle id="XMLID_1318_" cx="256" cy="256" fill="#ffcd69" r="101.969"/><path id="XMLID_1468_" d="m10 502h492v-176.034c-15.096 15.096-39.571 15.096-54.667 0-15.096-15.096-39.571-15.096-54.667 0-15.096 15.096-39.571 15.096-54.667 0-15.096-15.096-39.571-15.096-54.667 0-15.096 15.096-39.571 15.096-54.667 0-15.096-15.096-39.571-15.096-54.667 0-15.096 15.096-39.571 15.096-54.667 0-15.096-15.096-39.571-15.096-54.667 0-15.096 15.096-39.571 15.096-54.667 0z" fill="#ccf5fc"/><g id="XMLID_397_"><path id="XMLID_417_" d="m414.577 256c0 5.522 4.478 10 10 10h77.423c5.522 0 10-4.478 10-10s-4.478-10-10-10h-77.423c-5.522 0-10 4.478-10 10z"/><path id="XMLID_475_" d="m10 266h77.423c5.522 0 10-4.478 10-10s-4.478-10-10-10h-77.423c-5.522 0-10 4.478-10 10s4.478 10 10 10z"/><path id="XMLID_477_" d="m256 97.423c5.522 0 10-4.478 10-10v-77.423c0-5.522-4.478-10-10-10s-10 4.478-10 10v77.423c0 5.523 4.478 10 10 10z"/><path id="XMLID_481_" d="m375.202 146.798c2.56 0 5.118-.977 7.071-2.929l54.746-54.746c3.905-3.905 3.905-10.237 0-14.143-3.906-3.904-10.236-3.904-14.143 0l-54.746 54.746c-3.905 3.905-3.905 10.237 0 14.143 1.954 1.953 4.513 2.929 7.072 2.929z"/><path id="XMLID_482_" d="m129.727 143.869c1.953 1.952 4.512 2.929 7.071 2.929s5.118-.977 7.071-2.929c3.905-3.905 3.905-10.237 0-14.143l-54.746-54.745c-3.906-3.904-10.236-3.904-14.143 0-3.905 3.905-3.905 10.237 0 14.143z"/><path id="XMLID_490_" d="m71.739 421.054c5.412-5.412 12.607-8.394 20.262-8.394s14.85 2.981 20.262 8.394c9.189 9.189 21.408 14.251 34.404 14.251 12.997 0 25.216-5.062 34.404-14.251 8.165-8.163 20.352-10.634 31.051-6.296 5.117 2.079 10.948-.391 13.024-5.509 2.076-5.117-.391-10.949-5.509-13.024-18.159-7.364-38.85-3.171-52.708 10.687-11.17 11.174-29.351 11.175-40.524 0-18.971-18.971-49.838-18.971-68.809 0-11.173 11.175-29.354 11.173-40.524 0-3.906-3.904-10.236-3.904-14.143 0-3.905 3.905-3.905 10.237 0 14.143 18.973 18.972 49.841 18.97 68.81-.001z"/><path id="XMLID_506_" d="m494.929 406.911c-11.171 11.174-29.352 11.175-40.524 0-18.971-18.971-49.838-18.971-68.809 0-11.171 11.174-29.352 11.175-40.524 0-13.744-13.744-34.302-17.992-52.373-10.821-5.134 2.037-7.644 7.85-5.606 12.983s7.851 7.645 12.983 5.606c10.646-4.226 22.758-1.723 30.854 6.374 18.972 18.973 49.84 18.971 68.81 0 11.172-11.174 29.352-11.174 40.523 0 9.485 9.485 21.945 14.228 34.404 14.228 12.46 0 24.92-4.742 34.405-14.228 3.905-3.905 3.905-10.237 0-14.143-3.907-3.903-10.237-3.903-14.143.001z"/><path id="XMLID_509_" d="m71.739 333.037c11.172-11.172 29.352-11.172 40.523 0 18.972 18.972 49.84 18.971 68.81 0 5.412-5.412 12.608-8.394 20.262-8.394s14.851 2.981 20.263 8.394c18.971 18.971 49.838 18.971 68.809 0 5.412-5.412 12.608-8.394 20.263-8.394 7.653 0 14.85 2.981 20.262 8.394 18.971 18.97 49.839 18.972 68.81 0 11.172-11.172 29.352-11.172 40.523 0 9.485 9.485 21.945 14.228 34.404 14.228 12.46 0 24.92-4.742 34.405-14.228 3.905-3.905 3.905-10.237 0-14.143-3.906-3.904-10.236-3.904-14.143 0-5.412 5.412-12.608 8.394-20.262 8.394s-14.851-2.981-20.263-8.394c-18.971-18.971-49.838-18.971-68.809 0-5.412 5.412-12.608 8.394-20.263 8.394-6.661 0-12.975-2.261-18.069-6.415 13.41-18.864 20.705-41.552 20.705-64.873 0-61.74-50.229-111.969-111.969-111.969s-111.969 50.229-111.969 111.969c0 23.322 7.294 46.01 20.705 64.873-5.094 4.154-11.407 6.415-18.069 6.415-7.654 0-14.851-2.981-20.263-8.394-18.971-18.971-49.838-18.971-68.809 0-5.412 5.412-12.608 8.394-20.263 8.394-7.653 0-14.85-2.981-20.262-8.394-3.906-3.904-10.236-3.904-14.143 0-3.905 3.905-3.905 10.237 0 14.143 18.973 18.97 49.841 18.972 68.812 0zm184.261-169.006c50.712 0 91.969 41.257 91.969 91.969 0 19.094-5.953 37.668-16.896 53.129-17.981-8.285-40.014-5.032-54.811 9.765-11.172 11.172-29.352 11.172-40.523 0-14.796-14.796-36.829-18.049-54.81-9.765-10.944-15.46-16.897-34.034-16.897-53.129-.001-50.712 41.256-91.969 91.968-91.969z"/><path id="XMLID_510_" d="m502 492h-492c-5.522 0-10 4.478-10 10s4.478 10 10 10h492c5.522 0 10-4.478 10-10s-4.477-10-10-10z"/><path id="XMLID_511_" d="m248.99 418.3c-1.86 1.85-2.931 4.43-2.931 7.07 0 2.63 1.07 5.21 2.931 7.069 1.869 1.86 4.439 2.931 7.069 2.931 2.641 0 5.21-1.07 7.07-2.931 1.87-1.859 2.93-4.439 2.93-7.069s-1.06-5.21-2.93-7.07c-1.86-1.86-4.43-2.93-7.07-2.93-2.629 0-5.209 1.07-7.069 2.93z"/></g></g></svg>