<svg height="512" viewBox="0 0 128 128" width="512" xmlns="http://www.w3.org/2000/svg"><g><g><rect fill="#0d91bd" height="124.494" rx="5" width="83" x="22.5" y="1.75"/><path d="m30.5 9.75h67v90.244h-67z" fill="#ebe1dc"/><path d="m79.564 52.759c-.064 0-.127.007-.19.01a11.262 11.262 0 0 0 -21.727-3.978 8.786 8.786 0 0 0 -14.137 3.988c-.135-.009-.269-.02-.407-.02a5.729 5.729 0 0 0 0 11.457h36.461a5.729 5.729 0 0 0 0-11.457z" fill="#0d91bd"/><path d="m83.731 40.981a15.948 15.948 0 0 1 -15.045-21.232 15.947 15.947 0 0 0 -6.216 23.451 11.26 11.26 0 0 1 16.43 6.527 15.97 15.97 0 0 0 11.721-10.31 15.885 15.885 0 0 1 -6.89 1.564z" fill="#ffb655"/><path d="m71 118.244h-14a5.122 5.122 0 0 1 -5.122-5.122 5.122 5.122 0 0 1 5.122-5.122h14a5.122 5.122 0 0 1 5.122 5.122 5.122 5.122 0 0 1 -5.122 5.122z" fill="#09607d"/><path d="m93.5 114.872h-8.75a1.75 1.75 0 0 1 0-3.5h8.75a1.75 1.75 0 0 1 0 3.5z" fill="#ebe1dc"/><path d="m43.25 114.872h-8.75a1.75 1.75 0 0 1 0-3.5h8.75a1.75 1.75 0 1 1 0 3.5z" fill="#ebe1dc"/><path d="m49.657 92.57h-11.281a1.751 1.751 0 0 1 -1.75-1.75v-4.945a1.749 1.749 0 0 1 .915-1.538l10.366-5.628v-3.736h-9.531a1.75 1.75 0 1 1 0-3.5h11.281a1.75 1.75 0 0 1 1.75 1.75v6.527a1.749 1.749 0 0 1 -.915 1.538l-10.366 5.628v2.154h9.531a1.75 1.75 0 0 1 0 3.5z" fill="#0d91bd"/><path d="m67.944 92.57h-11.281a1.75 1.75 0 0 1 0-3.5h9.531v-5.3h-9.531a1.75 1.75 0 0 1 -1.75-1.75v-8.8a1.749 1.749 0 0 1 1.75-1.75h11.281a1.75 1.75 0 0 1 0 3.5h-9.531v5.3h9.531a1.75 1.75 0 0 1 1.75 1.75v8.8a1.75 1.75 0 0 1 -1.75 1.75z" fill="#0d91bd"/><g fill="#c8beb9"><path d="m89.624 74.973h-13.124a1.75 1.75 0 0 1 0-3.5h13.124a1.75 1.75 0 0 1 0 3.5z"/><path d="m86.25 83.771h-6.376a1.75 1.75 0 0 1 0-3.5h6.376a1.75 1.75 0 0 1 0 3.5z"/><path d="m89.624 92.57h-13.124a1.75 1.75 0 0 1 0-3.5h13.124a1.75 1.75 0 0 1 0 3.5z"/></g></g><g><path d="m100.5 0h-73a6.758 6.758 0 0 0 -6.75 6.75v114.494a6.758 6.758 0 0 0 6.75 6.75h73a6.758 6.758 0 0 0 6.75-6.75v-19.244a1.75 1.75 0 0 0 -3.5 0v19.244a3.254 3.254 0 0 1 -3.25 3.25h-73a3.254 3.254 0 0 1 -3.25-3.25v-114.494a3.254 3.254 0 0 1 3.25-3.25h73a3.254 3.254 0 0 1 3.25 3.25v62a1.75 1.75 0 0 0 3.5 0v-62a6.758 6.758 0 0 0 -6.75-6.75z"/><path d="m105.5 81.082a1.75 1.75 0 0 0 -1.75 1.75v5.086a1.75 1.75 0 0 0 3.5 0v-5.086a1.75 1.75 0 0 0 -1.75-1.75z"/><path d="m99.25 99.994v-90.244a1.75 1.75 0 0 0 -1.75-1.75h-67a1.751 1.751 0 0 0 -1.75 1.75v90.244a1.751 1.751 0 0 0 1.75 1.75h67a1.75 1.75 0 0 0 1.75-1.75zm-3.5-1.75h-63.5v-86.744h63.5z"/><path d="m43.1 65.965h36.46a7.479 7.479 0 0 0 1.44-14.818c-.008-.057-.023-.113-.032-.17a17.8 17.8 0 0 0 11.308-10.977 1.751 1.751 0 0 0 -2.409-2.158 14.059 14.059 0 0 1 -6.136 1.391 14.194 14.194 0 0 1 -13.393-18.9 1.75 1.75 0 0 0 -2.409-2.158 17.8 17.8 0 0 0 -10.044 15.956 17.583 17.583 0 0 0 2.215 8.553 13.021 13.021 0 0 0 -4.08 5.46 1.75 1.75 0 1 0 3.252 1.294 9.512 9.512 0 0 1 18.352 3.362 1.751 1.751 0 0 0 1.75 1.722c.041 0 .148-.008.189-.01a3.978 3.978 0 1 1 0 7.956h-36.463a3.976 3.976 0 1 1 .224-7.945h.063a1.746 1.746 0 0 0 1.84-1.623 1.777 1.777 0 0 0 -1.652-1.87c-.156-.01-.313-.02-.472-.02a7.478 7.478 0 0 0 0 14.956zm25.014-26.028a13.059 13.059 0 0 0 -4.987.989 14.1 14.1 0 0 1 -1.742-6.8 14.278 14.278 0 0 1 4.715-10.547q-.06.724-.06 1.456a17.725 17.725 0 0 0 21.06 17.377 14.3 14.3 0 0 1 -7.134 5.213 13.076 13.076 0 0 0 -11.852-7.688z"/><path d="m57 106.25a6.872 6.872 0 0 0 0 13.744h14a6.872 6.872 0 0 0 0-13.744zm17.378 6.872a3.376 3.376 0 0 1 -3.378 3.372h-14a3.372 3.372 0 0 1 0-6.744h14a3.376 3.376 0 0 1 3.375 3.372z"/><path d="m84.75 111.372a1.75 1.75 0 0 0 0 3.5h8.75a1.75 1.75 0 0 0 0-3.5z"/><path d="m34.5 111.372a1.75 1.75 0 0 0 0 3.5h8.75a1.75 1.75 0 1 0 0-3.5z"/><path d="m49.657 71.473h-11.281a1.75 1.75 0 1 0 0 3.5h9.531v3.736l-10.366 5.628a1.749 1.749 0 0 0 -.915 1.538v4.945a1.751 1.751 0 0 0 1.75 1.75h11.281a1.75 1.75 0 0 0 0-3.5h-9.531v-2.154l10.366-5.628a1.749 1.749 0 0 0 .915-1.538v-6.527a1.75 1.75 0 0 0 -1.75-1.75z"/><path d="m67.944 74.973a1.75 1.75 0 0 0 0-3.5h-11.281a1.749 1.749 0 0 0 -1.75 1.75v8.8a1.75 1.75 0 0 0 1.75 1.75h9.531v5.3h-9.531a1.75 1.75 0 0 0 0 3.5h11.281a1.75 1.75 0 0 0 1.75-1.75v-8.8a1.75 1.75 0 0 0 -1.75-1.75h-9.531v-5.3z"/><path d="m89.624 71.473h-13.124a1.75 1.75 0 0 0 0 3.5h13.124a1.75 1.75 0 0 0 0-3.5z"/><path d="m86.25 83.771a1.75 1.75 0 0 0 0-3.5h-6.376a1.75 1.75 0 0 0 0 3.5z"/><path d="m89.624 89.07h-13.124a1.75 1.75 0 0 0 0 3.5h13.124a1.75 1.75 0 0 0 0-3.5z"/></g></g></svg>